<mxfile host="app.diagrams.net" modified="2024-02-21T05:51:08.821Z" agent="Mozilla/5.0 (Windows NT 10.0; Win64; x64) AppleWebKit/537.36 (KHTML, like Gecko) Chrome/121.0.0.0 Safari/537.36" version="23.1.5" etag="wgtCR2bC5Nip2orsM-s2" type="github">
  <diagram name="第 1 页" id="0XZB1Ouh552kMAjh_Yy5">
    <mxGraphModel>
      <root>
        <mxCell id="0" />
        <mxCell id="1" parent="0" />
      </root>
    </mxGraphModel>
  </diagram>
</mxfile>
